<svg id="Ebene_1" data-name="Ebene 1" xmlns="http://www.w3.org/2000/svg" viewBox="0 0 397.92 380.74"><defs><style>.cls-1{fill:#383a3b;}.cls-2{fill:#62b22e;}.cls-3{fill:#fe5e00;}.cls-4{fill:#ffe600;}.cls-5{fill:#91dd19;}.cls-6{fill:#ed160c;}</style></defs><title>Speed-O-Mat_Icon</title><path class="cls-1" d="M315.21,179.13a96.06,96.06,0,0,0-31.84-21.06,110.06,110.06,0,0,0-80,0A94.45,94.45,0,0,0,150.88,211a111.73,111.73,0,0,0,0,80,94.45,94.45,0,0,0,52.52,52.9,110.06,110.06,0,0,0,80,0,96.37,96.37,0,0,0,31.84-21.06,94.77,94.77,0,0,0,20.93-31.84,111.73,111.73,0,0,0,0-80A94.67,94.67,0,0,0,315.21,179.13Zm3,104.16a79.17,79.17,0,0,1-16.92,26.07,76.51,76.51,0,0,1-25.7,17.3,87.58,87.58,0,0,1-64.43,0,76.51,76.51,0,0,1-25.7-17.3,79.17,79.17,0,0,1-16.92-26.07,90,90,0,0,1,0-64.68,79.38,79.38,0,0,1,16.92-26.07,76.8,76.8,0,0,1,25.7-17.3,87.58,87.58,0,0,1,64.43,0,76.8,76.8,0,0,1,25.7,17.3,79.38,79.38,0,0,1,16.92,26.07,90,90,0,0,1,0,64.68Z" transform="translate(-44.93 -51.53)"/><path class="cls-2" d="M97.73,306.72a155.72,155.72,0,0,1-10.46-54.94H44.93a197.77,197.77,0,0,0,13.59,71.08Z" transform="translate(-44.93 -51.53)"/><path class="cls-2" d="M106.46,394.34l29.39-30.6A157.26,157.26,0,0,1,101.21,315L62,331.16a198.26,198.26,0,0,0,41.21,60C104.28,392.22,105.37,393.29,106.46,394.34Z" transform="translate(-44.93 -51.53)"/><path class="cls-3" d="M390.7,195.85a155.6,155.6,0,0,1,9.64,46.93h42.38a197.2,197.2,0,0,0-12.82-63.06Z" transform="translate(-44.93 -51.53)"/><path class="cls-3" d="M388.45,113.74,359,144.37a157.29,157.29,0,0,1,28.3,43.15l39.19-16.14A198.21,198.21,0,0,0,388.45,113.74Z" transform="translate(-44.93 -51.53)"/><path class="cls-4" d="M327.24,69.74l-16.63,39a157.2,157.2,0,0,1,42.13,29.18l29.37-30.58A198.19,198.19,0,0,0,327.24,69.74Z" transform="translate(-44.93 -51.53)"/><path class="cls-2" d="M179.57,393.26a157.2,157.2,0,0,1-37-23.49L113.11,400.4A197.79,197.79,0,0,0,163,432.26Z" transform="translate(-44.93 -51.53)"/><path class="cls-4" d="M248.92,51.55V93.91a155.64,155.64,0,0,1,53.45,11.24l16.62-39A197.45,197.45,0,0,0,248.92,51.55Z" transform="translate(-44.93 -51.53)"/><path class="cls-5" d="M186.73,104.63a155.75,155.75,0,0,1,53.19-10.76V51.53a197.47,197.47,0,0,0-69.7,14Z" transform="translate(-44.93 -51.53)"/><path class="cls-5" d="M137.79,135.34a157.48,157.48,0,0,1,40.66-27.19L161.94,69.1a198,198,0,0,0-54.16,36.24Z" transform="translate(-44.93 -51.53)"/><path class="cls-6" d="M352.71,363a157.23,157.23,0,0,1-44,30l16.52,39.06A198,198,0,0,0,382.71,393Z" transform="translate(-44.93 -51.53)"/><path class="cls-6" d="M429.53,322.17a197.71,197.71,0,0,0,13.33-70.39H400.51a155.63,155.63,0,0,1-10.14,54.13Z" transform="translate(-44.93 -51.53)"/><path class="cls-6" d="M386.93,314.22A157.17,157.17,0,0,1,359,356.55l30,30a197.86,197.86,0,0,0,37.09-56.08Z" transform="translate(-44.93 -51.53)"/><path class="cls-5" d="M101.21,185.87a157.25,157.25,0,0,1,30.14-44.25l-30-30a198.24,198.24,0,0,0-39.31,58Z" transform="translate(-44.93 -51.53)"/><path class="cls-2" d="M58.57,177.91a197.33,197.33,0,0,0-13.5,64.87H87.45a155.26,155.26,0,0,1,10.27-48.61Z" transform="translate(-44.93 -51.53)"/><path d="M245.47,234.34a19.32,19.32,0,0,0-6.77,1.21L161,163.8a9.45,9.45,0,0,0-12.75,0,8.8,8.8,0,0,0,0,13L227,249.54a17.79,17.79,0,0,0-.17,2.42c0,9.72,8.35,17.63,18.61,17.63s18.62-7.91,18.62-17.63S255.74,234.34,245.47,234.34Z" transform="translate(-44.93 -51.53)"/></svg>