<svg id="Ebene_1" data-name="Ebene 1" xmlns="http://www.w3.org/2000/svg" viewBox="0 0 1834.11 380.74"><defs><style>.cls-1{fill:#fff;}</style></defs><title>logo_Speed-O-Mat_negativ</title><path class="cls-1" d="M161.45,234.44c-11.31-1.62-20.4-4.09-27-7.36-6.37-3.14-11-6.89-13.65-11.14a25.5,25.5,0,0,1-4-14c0-9.69,3.5-16.85,10.69-21.87,7.45-5.2,17.56-7.84,30-7.84a56.15,56.15,0,0,1,18.27,3.06,39,39,0,0,1,12.65,7.53,54.24,54.24,0,0,1,8.85,10.23,13.57,13.57,0,0,0,17.53,5.46l.23-.12a11.75,11.75,0,0,0,5.88-7.77,13.09,13.09,0,0,0-2-10.13,69.92,69.92,0,0,0-14.3-16.41,71.12,71.12,0,0,0-46.78-16.67c-12.73,0-24.2,2.16-34.08,6.4s-18,10.52-23.74,18.47-8.74,17.59-8.74,28.41c0,15.07,5.92,28,17.6,38.32,11.47,10.16,27.48,16.53,47.57,18.94,15.27,1.91,26.56,6.34,33.54,13.17s10.34,14.68,10.34,24.08c0,7.33-1.79,13.59-5.32,18.63a33.92,33.92,0,0,1-14.84,11.7,56.58,56.58,0,0,1-22.33,4.14,71,71,0,0,1-21.13-3,49.81,49.81,0,0,1-16.28-8.37,37.13,37.13,0,0,1-10.18-12,14.76,14.76,0,0,0-6.5-6.64,12.08,12.08,0,0,0-9.17-1,13,13,0,0,0-8.3,6.13,10.55,10.55,0,0,0,0,10.25,61.45,61.45,0,0,0,16.1,20.86A75.16,75.16,0,0,0,127,349.69a95.6,95.6,0,0,0,30.71,4.8,87.64,87.64,0,0,0,26.39-3.91A66.74,66.74,0,0,0,206,339.13a51.82,51.82,0,0,0,14.66-18.79A59.9,59.9,0,0,0,225.81,295c0-16.52-5.42-30.14-16.12-40.49C199.14,244.27,182.91,237.53,161.45,234.44Z" transform="translate(-84.89 -51.53)"/><path class="cls-1" d="M366.64,216.9c-11-6.35-23.55-9.57-37.42-9.57a72.7,72.7,0,0,0-36.78,9.44,70.45,70.45,0,0,0-26,25.83,73.69,73.69,0,0,0-9.83,36.81V397.73a12.2,12.2,0,0,0,12.91,12.92,12.41,12.41,0,0,0,9.11-3.55,12.75,12.75,0,0,0,3.55-9.37V332.79a65.64,65.64,0,0,0,17.35,12.94,68.08,68.08,0,0,0,31.91,7.51A69,69,0,0,0,393,317.55a74.76,74.76,0,0,0,9.3-37.14c0-13.86-3.22-26.45-9.57-37.42A70.83,70.83,0,0,0,366.64,216.9Zm-37.42,14.25a46.53,46.53,0,0,1,41.52,24,54.09,54.09,0,0,1,0,50.46,45.87,45.87,0,0,1-17,17.5,47.67,47.67,0,0,1-24.49,6.34A47.11,47.11,0,0,1,305,323.08,45,45,0,0,1,288.1,305.6a55.11,55.11,0,0,1,0-50.5,46.14,46.14,0,0,1,41.13-23.95Z" transform="translate(-84.89 -51.53)"/><path class="cls-1" d="M529,216.44c-9.9-6-21.63-9.11-34.85-9.11-13.4,0-25.42,3.19-35.73,9.48a66.91,66.91,0,0,0-24.32,25.89c-5.82,10.86-8.77,23.54-8.77,37.71,0,14,3.13,26.68,9.3,37.64a67.47,67.47,0,0,0,25.75,25.88c10.87,6.17,23.5,9.31,37.53,9.31a75.36,75.36,0,0,0,25.63-4.83,71.4,71.4,0,0,0,22-12.19,10.39,10.39,0,0,0,4-8.54,12.38,12.38,0,0,0-4.39-8.71l-.17-.15a11.92,11.92,0,0,0-8.09-2.56,13.41,13.41,0,0,0-8.2,3.14,41.15,41.15,0,0,1-13.63,7.31,53.09,53.09,0,0,1-17.16,3c-9.42,0-17.83-2.13-25-6.34a46.16,46.16,0,0,1-17-17.39,47.72,47.72,0,0,1-5.52-16.13h97.68a12.13,12.13,0,0,0,8.67-3.24,11.49,11.49,0,0,0,3.49-8.67c0-13.47-2.73-25.67-8.12-36.27A61.79,61.79,0,0,0,529,216.44ZM455.24,254.6a42.28,42.28,0,0,1,15.53-17.41c6.65-4.18,14.52-6.29,23.41-6.29,8.7,0,16.27,2,22.5,6a40.18,40.18,0,0,1,14.53,16.76,50.32,50.32,0,0,1,4.23,13.82H450.91A52,52,0,0,1,455.24,254.6Z" transform="translate(-84.89 -51.53)"/><path class="cls-1" d="M679.2,216.44c-9.9-6-21.63-9.11-34.85-9.11-13.4,0-25.42,3.19-35.73,9.48A66.91,66.91,0,0,0,584.3,242.7c-5.82,10.86-8.77,23.54-8.77,37.71,0,14,3.13,26.68,9.3,37.64a67.47,67.47,0,0,0,25.75,25.88c10.87,6.17,23.5,9.31,37.53,9.31a75.36,75.36,0,0,0,25.63-4.83,71.4,71.4,0,0,0,22-12.19,10.39,10.39,0,0,0,4-8.54,12.38,12.38,0,0,0-4.39-8.71l-.17-.15a11.92,11.92,0,0,0-8.09-2.56,13.41,13.41,0,0,0-8.2,3.14,41.25,41.25,0,0,1-13.63,7.31,53.09,53.09,0,0,1-17.16,3c-9.42,0-17.83-2.13-25-6.34a46.16,46.16,0,0,1-17-17.39,47.72,47.72,0,0,1-5.52-16.13h97.68a12.13,12.13,0,0,0,8.67-3.24,11.48,11.48,0,0,0,3.48-8.67c0-13.47-2.72-25.67-8.11-36.27A61.79,61.79,0,0,0,679.2,216.44ZM605.41,254.6a42.28,42.28,0,0,1,15.53-17.41c6.65-4.18,14.52-6.29,23.41-6.29,8.7,0,16.27,2,22.5,6a40.18,40.18,0,0,1,14.53,16.76,50.32,50.32,0,0,1,4.23,13.82H601.08A52,52,0,0,1,605.41,254.6Z" transform="translate(-84.89 -51.53)"/><path class="cls-1" d="M858.44,149.92a12.83,12.83,0,0,0-9.18,3.5,12.46,12.46,0,0,0-3.73,9.41v64.94a65.87,65.87,0,0,0-17.21-12.93,67.4,67.4,0,0,0-31.8-7.51A69,69,0,0,0,735,243c-6.17,10.95-9.3,23.45-9.3,37.14,0,13.87,3.22,26.46,9.57,37.42a70.8,70.8,0,0,0,26.09,26.08,76.6,76.6,0,0,0,73.95.13,70.31,70.31,0,0,0,26-25.83,75.83,75.83,0,0,0,10.08-36.8V162.83a12.44,12.44,0,0,0-3.73-9.41A12.83,12.83,0,0,0,858.44,149.92Zm-59.91,179.5A46.48,46.48,0,0,1,774.31,323a48.14,48.14,0,0,1-17.19-17.55,53.16,53.16,0,0,1,0-50.41,48.51,48.51,0,0,1,65.74-17.53A46.2,46.2,0,0,1,839.79,255a54.13,54.13,0,0,1,0,50.46A47.3,47.3,0,0,1,822.85,323,46.32,46.32,0,0,1,798.53,329.42Z" transform="translate(-84.89 -51.53)"/><path class="cls-1" d="M1226.21,179.13a96.06,96.06,0,0,0-31.84-21.06,110.06,110.06,0,0,0-80,0,94.45,94.45,0,0,0-52.52,52.9,111.73,111.73,0,0,0,0,80,94.45,94.45,0,0,0,52.52,52.9,110.06,110.06,0,0,0,80,0,96.37,96.37,0,0,0,31.84-21.06,94.77,94.77,0,0,0,20.93-31.84,111.73,111.73,0,0,0,0-80A94.67,94.67,0,0,0,1226.21,179.13Zm3,104.16a79.17,79.17,0,0,1-16.92,26.07,76.51,76.51,0,0,1-25.7,17.3,87.58,87.58,0,0,1-64.43,0,76.51,76.51,0,0,1-25.7-17.3,79.17,79.17,0,0,1-16.92-26.07,90,90,0,0,1,0-64.68,79.38,79.38,0,0,1,16.92-26.07,76.8,76.8,0,0,1,25.7-17.3,87.58,87.58,0,0,1,64.43,0,76.8,76.8,0,0,1,25.7,17.3,79.38,79.38,0,0,1,16.92,26.07,90,90,0,0,1,0,64.68Z" transform="translate(-84.89 -51.53)"/><path class="cls-1" d="M1611.54,214.56a52.35,52.35,0,0,0-27.84-7.48,58.44,58.44,0,0,0-29.38,7.43,52.63,52.63,0,0,0-15.74,13.72,49.66,49.66,0,0,0-14.53-13.67,53.34,53.34,0,0,0-62.43,5,12.45,12.45,0,0,0-3.38-7.24,12.19,12.19,0,0,0-9.16-3.73,12.5,12.5,0,0,0-9.42,3.73,12.86,12.86,0,0,0-3.49,9.19V339.32a12.36,12.36,0,0,0,3.55,9.11,12.68,12.68,0,0,0,9.36,3.55,12.16,12.16,0,0,0,12.66-12.66v-74.2c0-10.1,3-18,9.12-24.25s13.76-9.22,23.34-9.22c8.84,0,15.86,3.06,21.48,9.35s8.48,15.11,8.48,26.12v72.2a12.11,12.11,0,0,0,3.73,9.16,12.79,12.79,0,0,0,9.18,3.5,12.16,12.16,0,0,0,12.66-12.66V266.58h0v-.41c-.08-10.58,2.79-18.79,8.79-25.08s13.62-9.43,23.17-9.43c8.84,0,15.87,3.06,21.48,9.35s8.48,15.11,8.48,26.12v72.2a12.15,12.15,0,0,0,3.73,9.16,12.79,12.79,0,0,0,9.18,3.5,12.16,12.16,0,0,0,12.66-12.66v-72.2c0-12-2.26-22.56-6.72-31.48A51,51,0,0,0,1611.54,214.56Z" transform="translate(-84.89 -51.53)"/><path class="cls-1" d="M1802.13,243a71.18,71.18,0,0,0-26-26.08c-10.88-6.36-23.35-9.58-37-9.58A73.12,73.12,0,0,0,1702,216.9,70.8,70.8,0,0,0,1675.88,243c-6.36,11-9.58,23.55-9.58,37.42a74.71,74.71,0,0,0,9.3,37.14,69,69,0,0,0,61.52,35.69c12.71,0,24.25-3,34.3-8.83a66,66,0,0,0,14.71-11.6v6.51a12.15,12.15,0,0,0,3.73,9.16,13.8,13.8,0,0,0,18.37,0,12.16,12.16,0,0,0,3.73-9.16V280.41l0,0,0,0C1811.78,266.52,1808.48,253.94,1802.13,243Zm-38.65,80.1a47.63,47.63,0,0,1-65.75-17.53,53.16,53.16,0,0,1,0-50.41,48.09,48.09,0,0,1,17.2-17.55,48.9,48.9,0,0,1,48.53,0,47.38,47.38,0,0,1,17,17.53,54.09,54.09,0,0,1,0,50.46A46.34,46.34,0,0,1,1763.48,323.09Z" transform="translate(-84.89 -51.53)"/><path class="cls-1" d="M1915.68,330.19a11.64,11.64,0,0,0-8.84-3.78h-6.77c-7,0-12.56-2.33-17-7.14s-6.69-11-6.69-18.81v-63.8h25.2a11.81,11.81,0,0,0,8.42-3.24,11,11,0,0,0,3.48-8.16,11.18,11.18,0,0,0-3.48-8.42,11.83,11.83,0,0,0-8.42-3.24h-25.2V177.87A12.58,12.58,0,0,0,1863.47,165a12.16,12.16,0,0,0-9.16,3.73,12.86,12.86,0,0,0-3.5,9.18V213.6h-13.16a11.83,11.83,0,0,0-8.43,3.24,11.17,11.17,0,0,0-3.48,8.42,10.85,10.85,0,0,0,3.48,8.16,11.82,11.82,0,0,0,8.43,3.24h13.16v63.8a54.08,54.08,0,0,0,6.41,26.46A47.58,47.58,0,0,0,1900.07,352h5.27a14,14,0,0,0,9.58-3.41,11.75,11.75,0,0,0,4.08-9.25A13.19,13.19,0,0,0,1915.68,330.19Z" transform="translate(-84.89 -51.53)"/><path class="cls-1" d="M1008.73,306.72a155.72,155.72,0,0,1-10.46-54.94H955.93a197.77,197.77,0,0,0,13.59,71.08Z" transform="translate(-84.89 -51.53)"/><path class="cls-1" d="M1017.46,394.34l29.39-30.6A157.26,157.26,0,0,1,1012.21,315L973,331.16a198.26,198.26,0,0,0,41.21,60C1015.28,392.22,1016.37,393.29,1017.46,394.34Z" transform="translate(-84.89 -51.53)"/><path class="cls-1" d="M1301.7,195.85a155.6,155.6,0,0,1,9.64,46.93h42.38a197.2,197.2,0,0,0-12.82-63.06Z" transform="translate(-84.89 -51.53)"/><path class="cls-1" d="M1299.45,113.74,1270,144.37a157.29,157.29,0,0,1,28.3,43.15l39.19-16.14A198.21,198.21,0,0,0,1299.45,113.74Z" transform="translate(-84.89 -51.53)"/><path class="cls-1" d="M1238.24,69.74l-16.63,39a157.2,157.2,0,0,1,42.13,29.18l29.37-30.58A198.19,198.19,0,0,0,1238.24,69.74Z" transform="translate(-84.89 -51.53)"/><path class="cls-1" d="M1090.57,393.26a157.2,157.2,0,0,1-37-23.49l-29.42,30.63A197.79,197.79,0,0,0,1074,432.26Z" transform="translate(-84.89 -51.53)"/><path class="cls-1" d="M1159.92,51.55V93.91a155.64,155.64,0,0,1,53.45,11.24l16.62-39A197.45,197.45,0,0,0,1159.92,51.55Z" transform="translate(-84.89 -51.53)"/><path class="cls-1" d="M1097.73,104.63a155.75,155.75,0,0,1,53.19-10.76V51.53a197.47,197.47,0,0,0-69.7,14Z" transform="translate(-84.89 -51.53)"/><path class="cls-1" d="M1048.79,135.34a157.48,157.48,0,0,1,40.66-27.19L1072.94,69.1a198,198,0,0,0-54.16,36.24Z" transform="translate(-84.89 -51.53)"/><path class="cls-1" d="M1263.71,363a157.23,157.23,0,0,1-44,30l16.52,39.06a198,198,0,0,0,57.48-39.1Z" transform="translate(-84.89 -51.53)"/><path class="cls-1" d="M1340.53,322.17a197.71,197.71,0,0,0,13.33-70.39h-42.35a155.63,155.63,0,0,1-10.14,54.13Z" transform="translate(-84.89 -51.53)"/><path class="cls-1" d="M1297.93,314.22A157.17,157.17,0,0,1,1270,356.55l30,30a197.86,197.86,0,0,0,37.09-56.08Z" transform="translate(-84.89 -51.53)"/><path class="cls-1" d="M1012.21,185.87a157.25,157.25,0,0,1,30.14-44.25l-30-30a198.24,198.24,0,0,0-39.31,58Z" transform="translate(-84.89 -51.53)"/><path class="cls-1" d="M969.57,177.91a197.33,197.33,0,0,0-13.5,64.87h42.38a155.26,155.26,0,0,1,10.27-48.61Z" transform="translate(-84.89 -51.53)"/><path class="cls-1" d="M1156.47,234.34a19.32,19.32,0,0,0-6.77,1.21L1072,163.8a9.45,9.45,0,0,0-12.75,0,8.8,8.8,0,0,0,0,13L1138,249.54a17.79,17.79,0,0,0-.17,2.42c0,9.72,8.35,17.63,18.61,17.63s18.62-7.91,18.62-17.63S1166.74,234.34,1156.47,234.34Z" transform="translate(-84.89 -51.53)"/></svg>